<?xml version="1.0" encoding="utf-8"?>
<!-- Generator: Adobe Illustrator 16.0.4, SVG Export Plug-In . SVG Version: 6.00 Build 0)  -->
<!DOCTYPE svg PUBLIC "-//W3C//DTD SVG 1.1//EN" "http://www.w3.org/Graphics/SVG/1.1/DTD/svg11.dtd">
<svg version="1.1" id="Layer_1" xmlns="http://www.w3.org/2000/svg" xmlns:xlink="http://www.w3.org/1999/xlink" x="0px" y="0px"
	 width="480.048px" height="669.067px" viewBox="0 0 480.048 669.067" enable-background="new 0 0 480.048 669.067"
	 xml:space="preserve">
<path fill="none" stroke="#009640" stroke-width="2" stroke-miterlimit="10" d="M47.315,123.474v2.294h2.294v-2.294H47.315z
	 M47.315,119.115l1.147,1.147l1.147-1.147l-1.147-1.147L47.315,119.115z M44.104,115.903l1.147,1.147l1.147-1.147l-1.147-1.147
	L44.104,115.903z M37.221,114.527v2.294h2.293v-2.294H37.221z M37.221,133.798v2.294h2.293v-2.294H37.221z M44.104,134.946
	l1.147,1.147l1.147-1.147l-1.147-1.147L44.104,134.946z M47.315,131.046l1.147,1.146l1.147-1.146l-1.147-1.148L47.315,131.046z
	 M189.56,30.098v2.294h2.294v-2.294H189.56z M161.799,30.098v2.294h2.294v-2.294H161.799z M161.799,30.327v2.295h2.294v-2.295
	H161.799z M184.053,55.105v2.294h2.295v-2.294H184.053z M184.053,112.921v2.294h2.295v-2.294H184.053z M184.053,138.157l1.147,1.147
	l1.148-1.147l-1.148-1.146L184.053,138.157z M168.453,150.317l1.147,1.147l1.147-1.147l-1.147-1.147L168.453,150.317z
	 M137.021,149.17v2.294h2.294v-2.294H137.021z M105.819,150.317l1.147,1.147l1.147-1.147l-1.147-1.147L105.819,150.317z
	 M90.218,138.157l1.147,1.147l1.146-1.147l-1.146-1.146L90.218,138.157z M90.218,112.921v2.294h2.294v-2.294H90.218z M90.218,50.976
	v2.294h2.294v-2.294H90.218z M90.218,38.357l1.147,1.147l1.146-1.147l-1.146-1.147L90.218,38.357z M81.271,31.245l1.147,1.147
	l1.147-1.147l-1.147-1.147L81.271,31.245z M63.604,30.098v2.294h2.294v-2.294H63.604z M45.939,31.245l1.147,1.147l1.147-1.147
	l-1.147-1.147L45.939,31.245z M37.221,38.357l1.146,1.147l1.147-1.147l-1.147-1.147L37.221,38.357z M37.221,50.976v2.294h2.293
	v-2.294H37.221z M37.221,98.926v2.294h2.293v-2.294H37.221z M51.216,100.073l1.147,1.147l1.147-1.147l-1.147-1.147L51.216,100.073z
	 M61.54,107.415l1.147,1.147l1.147-1.147l-1.147-1.147L61.54,107.415z M61.54,123.245v2.294h2.295v-2.294H61.54z M61.54,140.222
	l1.147,1.147l1.147-1.147l-1.147-1.147L61.54,140.222z M50.986,150.317l1.147,1.147l1.147-1.147l-1.147-1.147L50.986,150.317z
	 M37.68,149.17v2.294h2.294v-2.294H37.68z M31.256,149.17v2.294h2.294v-2.294H31.256z M22.997,150.317l1.147,1.147l1.147-1.147
	l-1.147-1.147L22.997,150.317z M16.114,145.729l1.147,1.147l1.147-1.147l-1.147-1.147L16.114,145.729z M16.114,135.405v2.294h2.294
	v-2.294H16.114z M16.114,50.976v2.294h2.294v-2.294H16.114z M16.114,28.033l1.147,1.147l1.147-1.147l-1.147-1.147L16.114,28.033z
	 M31.944,15.874l1.147,1.147l1.147-1.147l-1.147-1.147L31.944,15.874z M63.604,14.727v2.294h2.294v-2.294H63.604z M95.266,15.874
	l1.147,1.147l1.147-1.147l-1.147-1.147L95.266,15.874z M111.325,28.033l1.147,1.147l1.147-1.147l-1.147-1.147L111.325,28.033z
	 M111.325,50.976v2.294h2.294v-2.294H111.325z M111.325,112.921v2.294h2.294v-2.294H111.325z M111.325,127.833l1.147,1.148
	l1.147-1.148l-1.147-1.146L111.325,127.833z M119.814,134.946l1.147,1.147l1.146-1.147l-1.146-1.147L119.814,134.946z
	 M137.021,133.798v2.294h2.294v-2.294H137.021z M154.458,134.946l1.147,1.147l1.147-1.147l-1.147-1.147L154.458,134.946z
	 M162.946,127.833l1.147,1.148l1.147-1.148l-1.147-1.146L162.946,127.833z M162.946,112.921v2.294h2.294v-2.294H162.946z
	 M162.946,58.776v2.294h2.294v-2.294H162.946z M148.493,42.257l1.146,1.147l1.147-1.147l-1.147-1.147L148.493,42.257z
	 M147.116,40.651l1.147,1.147l1.147-1.147l-1.147-1.147L147.116,40.651z M147.116,36.522v2.294h2.294v-2.294H147.116z
	 M147.116,35.146l1.147,1.147l1.147-1.147l-1.147-1.147L147.116,35.146z M149.41,32.163l1.147,1.146l1.147-1.146l-1.147-1.147
	L149.41,32.163z M161.799,14.727v2.294h2.294v-2.294H161.799z M189.56,14.727v2.294h2.294v-2.294H189.56z M48.462,124.622
	c0,6.424-3.212,10.324-10.095,10.324v-19.272C45.25,115.903,48.462,119.115,48.462,124.622z M190.707,31.245V15.874h-27.761
	c-12.389,16.29-14.683,19.272-14.683,21.795c0,2.982,1.376,4.588,15.831,22.254v54.145c0,13.765-8.489,20.878-25.925,20.878
	c-17.207,0-25.696-7.113-25.696-20.878V52.123c0-24.09-16.06-36.25-47.721-36.25c-31.661,0-47.491,12.16-47.491,36.25v84.429
	c0,9.177,6.883,13.766,15.142,13.766h6.424c13.307,0,23.86-10.095,23.86-25.925c0-16.978-10.324-24.319-24.319-24.319v-47.95
	c0-13.766,8.718-20.878,26.384-20.878c17.666,0,26.614,7.112,26.614,20.878v61.945c0,24.089,15.601,36.25,46.803,36.25
	c31.431,0,47.032-12.16,47.032-36.25V56.253l-22.254-24.778v-0.229H190.707z"/>
<path fill="none" stroke="#E30613" stroke-width="2" stroke-miterlimit="10" d="M318.53,120.628v2.274h2.274v-2.274H318.53z
	 M318.53,115.623l1.138,1.138l1.137-1.138l-1.137-1.138L318.53,115.623z M315.572,112.438l1.138,1.137l1.138-1.137l-1.138-1.137
	L315.572,112.438z M312.161,111.301v2.274h2.274v-2.274H312.161z M312.161,130.408v2.275h2.274v-2.275H312.161z M315.118,131.546
	l1.137,1.137l1.138-1.137l-1.138-1.138L315.118,131.546z M318.53,127.451l1.138,1.138l1.137-1.138l-1.137-1.138L318.53,127.451z
	 M459.331,40.787v2.274h2.274v-2.274H459.331z M443.408,40.787v2.274h2.274v-2.274H443.408z M443.408,41.015v2.274h2.274v-2.274
	H443.408z M457.511,55.345v2.274h2.275v-2.274H457.511z M457.511,112.666v2.274h2.275v-2.274H457.511z M457.511,137.687l1.138,1.138
	l1.138-1.138l-1.138-1.137L457.511,137.687z M438.631,149.743l1.138,1.137l1.138-1.137l-1.138-1.138L438.631,149.743z
	 M401.1,148.605v2.275h2.274v-2.275H401.1z M363.341,149.743l1.137,1.137l1.138-1.137l-1.138-1.138L363.341,149.743z
	 M344.461,137.687l1.138,1.138l1.137-1.138l-1.137-1.137L344.461,137.687z M344.461,112.666v2.274h2.274v-2.274H344.461z
	 M344.461,53.525V55.8h2.274v-2.275H344.461z M344.461,47.611l1.138,1.138l1.137-1.138l-1.137-1.137L344.461,47.611z
	 M339.001,41.924l1.138,1.137l1.138-1.137l-1.138-1.137L339.001,41.924z M328.311,40.787v2.274h2.275v-2.274H328.311z
	 M317.62,41.924l1.137,1.137l1.138-1.137l-1.138-1.137L317.62,41.924z M312.161,47.611l1.137,1.138l1.138-1.138l-1.138-1.137
	L312.161,47.611z M312.161,53.525V55.8h2.274v-2.275H312.161z M312.161,93.786v2.275h2.274v-2.275H312.161z M330.13,95.151
	l1.138,1.137l1.138-1.137l-1.138-1.138L330.13,95.151z M340.366,102.657l1.138,1.138l1.138-1.138l-1.138-1.137L340.366,102.657z
	 M340.366,120.855v2.274h2.275v-2.274H340.366z M340.366,138.597l1.138,1.137l1.138-1.137l-1.138-1.137L340.366,138.597z
	 M327.856,149.743l1.137,1.137l1.137-1.137l-1.137-1.138L327.856,149.743z M306.701,148.605v2.275h2.275v-2.275H306.701z
	 M292.826,148.605v2.275h2.274v-2.275H292.826z M275.993,149.743l1.138,1.137l1.138-1.137l-1.138-1.138L275.993,149.743z
	 M270.989,145.421l1.138,1.137l1.137-1.137l-1.137-1.137L270.989,145.421z M270.989,132.683v2.274h2.274v-2.274H270.989z
	 M270.989,51.25v2.274h2.274V51.25H270.989z M270.989,28.504l1.138,1.137l1.137-1.137l-1.137-1.138L270.989,28.504z M290.097,16.448
	l1.138,1.137l1.138-1.137l-1.138-1.137L290.097,16.448z M328.311,15.311v2.274h2.275v-2.274H328.311z M366.298,16.448l1.137,1.137
	l1.137-1.137l-1.137-1.137L366.298,16.448z M385.404,28.504l1.138,1.137l1.138-1.137l-1.138-1.138L385.404,28.504z M385.404,51.25
	v2.274h2.275V51.25H385.404z M385.404,108.117v2.274h2.275v-2.274H385.404z M385.404,116.305l1.138,1.137l1.138-1.137l-1.138-1.137
	L385.404,116.305z M390.636,124.267l1.138,1.138l1.138-1.138l-1.138-1.137L390.636,124.267z M401.1,123.129v2.275h2.274v-2.275
	H401.1z M411.563,124.267l1.137,1.138l1.138-1.138l-1.138-1.137L411.563,124.267z M416.34,116.305l1.138,1.137l1.137-1.137
	l-1.137-1.137L416.34,116.305z M416.34,108.117v2.274h2.274v-2.274H416.34z M416.34,51.706v2.274h2.274v-2.274H416.34z
	 M407.241,40.787l1.138,1.137l1.137-1.137l-1.137-1.138L407.241,40.787z M406.786,40.104l1.137,1.137l1.138-1.137l-1.138-1.137
	L406.786,40.104z M406.786,36.92v2.274h2.274V36.92H406.786z M406.786,35.101l1.137,1.137l1.138-1.137l-1.138-1.138L406.786,35.101z
	 M411.79,28.731l1.138,1.137l1.137-1.137l-1.137-1.137L411.79,28.731z M421.345,15.311v2.274h2.273v-2.274H421.345z M459.331,15.311
	v2.274h2.274v-2.274H459.331z M319.668,121.765c0,5.687-3.413,9.781-6.37,9.781v-19.107
	C316.71,112.438,319.668,115.623,319.668,121.765z M460.468,41.924V16.448h-37.986c-9.554,12.283-14.559,18.652-14.559,21.609
	c0,2.047,0.456,2.729,9.555,14.785v56.412c0,7.051-4.777,15.012-15.24,15.012c-10.464,0-15.695-7.961-15.695-15.012V52.388
	c0-23.884-19.107-35.939-57.094-35.939c-38.214,0-57.321,12.056-57.321,35.939v81.432c0,11.601,5.004,15.923,21.837,15.923h13.875
	c21.154,0,33.665-11.146,33.665-27.751c0-19.334-10.236-26.84-28.206-27.068V54.662c0-7.051,5.459-12.738,16.15-12.738
	c10.69,0,16.15,5.687,16.15,12.738v59.142c0,23.883,18.879,35.939,56.639,35.939c37.531,0,56.411-12.056,56.411-35.939V56.482
	l-14.103-14.331v-0.227H460.468z"/>
<path fill="none" stroke="#F9B233" stroke-width="2" stroke-miterlimit="10" d="M152.425,386.661v3.842h3.844v-3.842H152.425z
	 M152.425,378.978l1.921,1.919l1.922-1.919l-1.922-1.92L152.425,378.978z M147.049,373.599l1.917,1.924l1.923-1.924l-1.923-1.92
	L147.049,373.599z M138.595,371.295v3.842h3.843v-3.842H138.595z M138.595,403.565v3.84h3.843v-3.84H138.595z M146.663,405.486
	l1.921,1.919l1.921-1.919l-1.921-1.921L146.663,405.486z M152.425,398.956l1.921,1.92l1.922-1.92l-1.922-1.922L152.425,398.956z
	 M390.228,241.062v3.844h3.842v-3.844H390.228z M353.733,241.062v3.844h3.84v-3.844H353.733z M353.733,241.449v3.84h3.84v-3.84
	H353.733z M384.081,274.486v3.843h3.842v-3.843H384.081z M384.081,371.295v3.842h3.842v-3.842H384.081z M384.081,413.555
	l1.918,1.919l1.924-1.919l-1.924-1.923L384.081,413.555z M355.269,433.913l1.92,1.921l1.924-1.921l-1.924-1.92L355.269,433.913z
	 M297.259,431.993v3.841h3.842v-3.841H297.259z M239.251,433.913l1.918,1.921l1.922-1.921l-1.922-1.92L239.251,433.913z
	 M210.052,413.555l1.92,1.919l1.92-1.919l-1.92-1.923L210.052,413.555z M210.052,371.295v3.842h3.841v-3.842H210.052z
	 M210.052,269.49v3.841h3.841v-3.841H210.052z M210.052,253.742l1.92,1.922l1.92-1.922l-1.92-1.921L210.052,253.742z
	 M198.143,242.985l1.92,1.921l1.919-1.921l-1.919-1.923L198.143,242.985z M174.324,241.062v3.844h3.841v-3.844H174.324z
	 M150.505,242.985l1.92,1.921l1.921-1.921l-1.921-1.923L150.505,242.985z M138.595,253.742l1.922,1.922l1.92-1.922l-1.92-1.921
	L138.595,253.742z M138.595,269.49v3.841h3.843v-3.841H138.595z M138.595,343.635v3.84h3.843v-3.84H138.595z M165.488,345.556
	l1.92,1.919l1.921-1.919l-1.921-1.921L165.488,345.556z M182.776,358.232l1.92,1.92l1.921-1.92l-1.921-1.922L182.776,358.232z
	 M182.776,386.661v3.842h3.841v-3.842H182.776z M182.776,415.859l1.92,1.919l1.921-1.919l-1.921-1.923L182.776,415.859z
	 M163.183,433.913l1.919,1.921l1.923-1.921l-1.923-1.92L163.183,433.913z M134.369,431.993v3.841h3.842v-3.841H134.369z
	 M117.082,431.993v3.841h3.842v-3.841H117.082z M95.953,433.913l1.921,1.921l1.921-1.921l-1.921-1.92L95.953,433.913z
	 M85.964,426.231l1.921,1.92l1.921-1.92l-1.921-1.922L85.964,426.231z M85.964,407.021v3.844h3.842v-3.844H85.964z M85.964,267.569
	v3.842h3.842v-3.842H85.964z M85.964,229.157l1.921,1.919l1.921-1.919l-1.921-1.924L85.964,229.157z M115.544,208.794l1.922,1.922
	l1.921-1.922l-1.921-1.92L115.544,208.794z M174.324,206.874v3.842h3.841v-3.842H174.324z M232.718,208.794l1.92,1.922l1.92-1.922
	l-1.92-1.92L232.718,208.794z M262.3,229.157l1.92,1.919l1.92-1.919l-1.92-1.924L262.3,229.157z M262.3,267.569v3.842h3.84v-3.842
	H262.3z M262.3,367.452v3.843h3.84v-3.843H262.3z M262.3,386.661l1.92,1.922l1.92-1.922l-1.92-1.92L262.3,386.661z M273.823,399.339
	l1.922,1.92l1.922-1.92l-1.922-1.922L273.823,399.339z M297.259,397.417v3.842h3.842v-3.842H297.259z M320.69,399.339l1.924,1.92
	l1.92-1.92l-1.92-1.922L320.69,399.339z M331.835,386.661l1.92,1.922l1.92-1.922l-1.92-1.92L331.835,386.661z M331.835,367.452
	v3.843h3.84v-3.843H331.835z M331.835,274.486v3.843h3.84v-3.843H331.835z M311.856,251.438l1.92,1.919l1.922-1.919l-1.922-1.921
	L311.856,251.438z M310.319,249.517l1.922,1.921l1.92-1.921l-1.92-1.921L310.319,249.517z M310.319,243.37v3.841h3.842v-3.841
	H310.319z M310.319,240.681l1.922,1.918l1.92-1.918l-1.92-1.923L310.319,240.681z M316.466,232.612l1.922,1.924l1.92-1.924
	l-1.92-1.917L316.466,232.612z M334.907,206.874v3.842h3.842v-3.842H334.907z M390.228,206.874v3.842h3.842v-3.842H390.228z
	 M154.347,388.583c0,10.373-5.763,16.903-13.829,16.903v-32.269C148.967,373.599,154.347,378.978,154.347,388.583z M392.147,242.985
	v-34.191h-55.318c-18.441,23.818-24.588,31.887-24.588,36.495c0,4.228,1.535,6.148,21.514,31.116v92.969
	c0,17.287-11.141,29.965-34.576,29.965c-23.434,0-34.959-12.678-34.959-29.965V269.49c0-40.333-29.582-60.696-87.975-60.696
	c-58.778,0-88.36,20.363-88.36,60.696v139.454c0,17.287,9.989,24.969,31.119,24.969h17.288c28.812,0,48.405-18.054,48.405-45.33
	c0-30.351-17.287-43.027-44.178-43.027v-74.145c0-17.669,11.908-28.426,35.727-28.426c23.819,0,35.728,10.756,35.728,28.426v101.807
	c0,40.337,29.196,60.695,87.206,60.695s86.82-20.358,86.82-60.695v-96.813l-30.348-33.035v-0.385H392.147z"/>
<path fill="none" stroke="#009640" stroke-width="2" stroke-miterlimit="10" d="M145.127,388.966v3.84h3.842v-3.84H145.127z
	 M145.127,381.665l1.92,1.922l1.921-1.922l-1.921-1.92L145.127,381.665z M139.749,376.286l1.921,1.923l1.921-1.923l-1.921-1.922
	L139.749,376.286z M128.225,373.982v3.842h3.841v-3.842H128.225z M128.225,406.253v3.84h3.841v-3.84H128.225z M139.749,408.172
	l1.921,1.921l1.921-1.921l-1.921-1.919L139.749,408.172z M145.127,401.643l1.92,1.921l1.921-1.921l-1.921-1.922L145.127,401.643z
	 M383.31,232.612v3.845h3.843v-3.845H383.31z M336.827,232.612v3.845h3.84v-3.845H336.827z M336.827,232.996v3.843h3.84v-3.843
	H336.827z M374.092,274.484v3.841h3.842v-3.841H374.092z M374.092,371.294v3.84h3.842v-3.84H374.092z M374.092,413.549l1.919,1.923
	l1.923-1.923l-1.923-1.919L374.092,413.549z M347.967,433.913l1.921,1.922l1.922-1.922l-1.922-1.923L347.967,433.913z
	 M295.334,431.99v3.845h3.844v-3.845H295.334z M243.088,433.913l1.92,1.922l1.922-1.922l-1.922-1.923L243.088,433.913z
	 M216.966,413.549l1.922,1.923l1.92-1.923l-1.92-1.919L216.966,413.549z M216.966,371.294v3.84h3.843v-3.84H216.966z
	 M216.966,267.569v3.841h3.843v-3.841H216.966z M216.966,246.442l1.922,1.92l1.92-1.92l-1.92-1.922L216.966,246.442z
	 M201.983,234.534l1.921,1.923l1.921-1.923l-1.921-1.922L201.983,234.534z M172.402,232.612v3.845h3.842v-3.845H172.402z
	 M142.822,234.534l1.921,1.923l1.92-1.923l-1.92-1.922L142.822,234.534z M128.225,246.442l1.92,1.92l1.921-1.92l-1.921-1.922
	L128.225,246.442z M128.225,267.569v3.841h3.841v-3.841H128.225z M128.225,347.858v3.841h3.841v-3.841H128.225z M151.658,349.778
	l1.921,1.921l1.921-1.921l-1.921-1.92L151.658,349.778z M168.945,362.07l1.921,1.923l1.921-1.923l-1.921-1.918L168.945,362.07z
	 M168.945,388.58v3.841h3.842v-3.841H168.945z M168.945,417.009l1.921,1.919l1.921-1.919l-1.921-1.923L168.945,417.009z
	 M151.274,433.913l1.92,1.922l1.921-1.922l-1.921-1.923L151.274,433.913z M128.992,431.99v3.845h3.841v-3.845H128.992z
	 M118.235,431.99v3.845h3.842v-3.845H118.235z M104.406,433.913l1.921,1.922l1.919-1.922l-1.919-1.923L104.406,433.913z
	 M92.881,426.229l1.92,1.918l1.92-1.918l-1.92-1.923L92.881,426.229z M92.881,408.94v3.843h3.84v-3.843H92.881z M92.881,267.569
	v3.841h3.84v-3.841H92.881z M92.881,229.155l1.92,1.921l1.92-1.921l-1.92-1.921L92.881,229.155z M119.388,208.795l1.92,1.921
	l1.921-1.921l-1.921-1.921L119.388,208.795z M172.402,206.874v3.842h3.842v-3.842H172.402z M225.418,208.795l1.921,1.921l1.92-1.921
	l-1.92-1.921L225.418,208.795z M252.309,229.155l1.921,1.921l1.923-1.921l-1.923-1.921L252.309,229.155z M252.309,267.569v3.841
	h3.844v-3.841H252.309z M252.309,371.294v3.84h3.844v-3.84H252.309z M252.309,396.263l1.921,1.922l1.923-1.922l-1.923-1.92
	L252.309,396.263z M266.521,408.172l1.923,1.921l1.92-1.921l-1.92-1.919L266.521,408.172z M295.334,406.253v3.84h3.844v-3.84
	H295.334z M324.533,408.172l1.92,1.921l1.92-1.921l-1.92-1.919L324.533,408.172z M338.747,396.263l1.92,1.922l1.921-1.922
	l-1.921-1.92L338.747,396.263z M338.747,371.294v3.84h3.841v-3.84H338.747z M338.747,280.631v3.84h3.841v-3.84H338.747z
	 M314.546,252.973l1.919,1.92l1.92-1.92l-1.92-1.92L314.546,252.973z M312.239,250.284l1.92,1.92l1.922-1.92l-1.922-1.922
	L312.239,250.284z M312.239,243.368v3.843h3.842v-3.843H312.239z M312.239,241.064l1.92,1.921l1.922-1.921l-1.922-1.922
	L312.239,241.064z M316.081,236.071l1.92,1.92l1.921-1.92l-1.921-1.922L316.081,236.071z M336.827,206.874v3.842h3.84v-3.842
	H336.827z M383.31,206.874v3.842h3.843v-3.842H383.31z M147.047,390.884c0,10.759-5.378,17.288-16.903,17.288v-32.271
	C141.669,376.286,147.047,381.665,147.047,390.884z M385.23,234.534v-25.739h-46.483c-20.746,27.276-24.588,32.269-24.588,36.494
	c0,4.995,2.306,7.684,26.508,37.262v90.664c0,23.048-14.214,34.957-43.409,34.957c-28.813,0-43.028-11.909-43.028-34.957V269.492
	c0-40.337-26.891-60.697-79.906-60.697c-53.016,0-79.522,20.36-79.522,60.697v141.37c0,15.367,11.525,23.051,25.354,23.051h10.756
	c22.282,0,39.954-16.904,39.954-43.41c0-28.433-17.288-40.725-40.722-40.725v-80.286c0-23.05,14.598-34.958,44.179-34.958
	c29.581,0,44.564,11.909,44.564,34.958v103.723c0,40.334,26.12,60.698,78.37,60.698c52.63,0,78.753-20.364,78.753-60.698v-96.809
	l-37.264-41.488v-0.384H385.23z"/>
<path fill="none" stroke="#E30613" stroke-width="2" stroke-miterlimit="10" d="M159.344,384.741v3.842h3.84v-3.842H159.344z
	 M159.344,376.289l1.922,1.921l1.918-1.921l-1.918-1.922L159.344,376.289z M154.348,370.909l1.922,1.922l1.921-1.922l-1.921-1.92
	L154.348,370.909z M148.586,368.989v3.842h3.841v-3.842H148.586z M148.586,401.261v3.842h3.841v-3.842H148.586z M153.581,403.182
	l1.92,1.921l1.921-1.921l-1.921-1.921L153.581,403.182z M159.344,396.264l1.922,1.924l1.918-1.924l-1.918-1.919L159.344,396.264z
	 M397.142,249.9v3.841h3.842V249.9H397.142z M370.25,249.9v3.841h3.842V249.9H370.25z M370.25,250.287v3.838h3.842v-3.838H370.25z
	 M394.068,274.486v3.841h3.844v-3.841H394.068z M394.068,371.294v3.84h3.844v-3.84H394.068z M394.068,413.553l1.921,1.92l1.923-1.92
	l-1.923-1.921L394.068,413.553z M362.183,433.913l1.919,1.922l1.923-1.922l-1.923-1.92L362.183,433.913z M298.796,431.993v3.842
	h3.841v-3.842H298.796z M235.024,433.913l1.92,1.922l1.92-1.922l-1.92-1.92L235.024,433.913z M203.138,413.553l1.921,1.92l1.92-1.92
	l-1.92-1.921L203.138,413.553z M203.138,371.294v3.84h3.842v-3.84H203.138z M203.138,271.414v3.841h3.842v-3.841H203.138z
	 M203.138,261.426l1.921,1.919l1.92-1.919l-1.92-1.922L203.138,261.426z M193.917,251.82l1.921,1.921l1.921-1.921l-1.921-1.92
	L193.917,251.82z M175.862,249.9v3.841h3.843V249.9H175.862z M157.806,251.82l1.92,1.921l1.921-1.921l-1.921-1.92L157.806,251.82z
	 M148.586,261.426l1.92,1.919l1.921-1.919l-1.921-1.922L148.586,261.426z M148.586,271.414v3.841h3.841v-3.841H148.586z
	 M148.586,339.407v3.842h3.841v-3.842H148.586z M178.934,341.715l1.922,1.92l1.921-1.92l-1.921-1.922L178.934,341.715z
	 M196.222,354.391l1.921,1.921l1.921-1.921l-1.921-1.922L196.222,354.391z M196.222,385.125v3.841h3.843v-3.841H196.222z
	 M196.222,415.089l1.921,1.922l1.921-1.922l-1.921-1.919L196.222,415.089z M175.094,433.913l1.92,1.922l1.919-1.922l-1.919-1.92
	L175.094,433.913z M139.365,431.993v3.842h3.843v-3.842H139.365z M115.931,431.993v3.842h3.842v-3.842H115.931z M87.502,433.913
	l1.922,1.922l1.921-1.922l-1.921-1.92L87.502,433.913z M79.05,426.614l1.921,1.921l1.92-1.921l-1.92-1.92L79.05,426.614z
	 M79.05,405.103v3.84h3.841v-3.84H79.05z M79.05,267.572v3.842h3.841v-3.842H79.05z M79.05,229.157l1.921,1.919l1.92-1.919
	l-1.92-1.921L79.05,229.157z M111.322,208.797l1.921,1.921l1.922-1.921l-1.922-1.923L111.322,208.797z M175.862,206.874v3.844h3.843
	v-3.844H175.862z M240.018,208.797l1.921,1.921l1.92-1.921l-1.92-1.923L240.018,208.797z M272.288,229.157l1.921,1.919l1.922-1.919
	l-1.922-1.921L272.288,229.157z M272.288,267.572v3.842h3.843v-3.842H272.288z M272.288,363.611v3.84h3.843v-3.84H272.288z
	 M272.288,377.44l1.921,1.921l1.922-1.921l-1.922-1.92L272.288,377.44z M281.122,390.888l1.922,1.921l1.921-1.921l-1.921-1.922
	L281.122,390.888z M298.796,388.966v3.843h3.841v-3.843H298.796z M316.468,390.888l1.92,1.921l1.922-1.921l-1.922-1.922
	L316.468,390.888z M324.535,377.44l1.921,1.921l1.921-1.921l-1.921-1.92L324.535,377.44z M324.535,363.611v3.84h3.842v-3.84H324.535
	z M324.535,268.34v3.842h3.842v-3.842H324.535z M309.169,249.9l1.92,1.92l1.92-1.92l-1.92-1.921L309.169,249.9z M308.398,248.748
	l1.921,1.923l1.92-1.923l-1.92-1.921L308.398,248.748z M308.398,243.369v3.842h3.841v-3.842H308.398z M308.398,240.298l1.921,1.919
	l1.92-1.919l-1.92-1.921L308.398,240.298z M316.851,229.54l1.92,1.921l1.921-1.921l-1.921-1.921L316.851,229.54z M332.987,206.874
	v3.844h3.84v-3.844H332.987z M397.142,206.874v3.844h3.842v-3.844H397.142z M161.266,386.662c0,9.602-5.765,16.52-10.759,16.52
	v-32.272C156.27,370.909,161.266,376.289,161.266,386.662z M399.062,251.82v-43.023h-64.154
	c-16.138,20.743-24.589,31.501-24.589,36.494c0,3.457,0.77,4.609,16.137,24.97v95.271c0,11.908-8.068,25.355-25.739,25.355
	c-17.673,0-26.508-13.447-26.508-25.355v-96.039c0-40.336-32.271-60.696-96.426-60.696c-64.541,0-96.812,20.36-96.812,60.696
	v137.528c0,19.593,8.452,26.892,36.881,26.892h23.434c35.728,0,56.857-18.824,56.857-46.867c0-32.655-17.288-45.331-47.637-45.718
	v-67.995c0-11.907,9.219-21.513,27.276-21.513c18.055,0,27.276,9.606,27.276,21.513v99.881c0,40.338,31.885,60.698,95.658,60.698
	c63.385,0,95.272-20.36,95.272-60.698v-96.807l-23.817-24.204v-0.384H399.062z"/>
<path fill="none" stroke="#F9B233" stroke-width="2" stroke-miterlimit="10" d="M181.268,616.872v2.577h2.578v-2.577H181.268z
	 M181.268,611.719l1.289,1.287l1.289-1.287l-1.289-1.288L181.268,611.719z M177.662,608.111l1.286,1.29l1.29-1.29l-1.29-1.288
	L177.662,608.111z M171.992,606.566v2.576h2.577v-2.576H171.992z M171.992,628.21v2.575h2.577v-2.575H171.992z M177.402,629.498
	l1.289,1.287l1.289-1.287l-1.289-1.288L177.402,629.498z M181.268,625.118l1.289,1.288l1.289-1.288l-1.289-1.288L181.268,625.118z
	 M340.765,519.214v2.579h2.577v-2.579H340.765z M316.287,519.214v2.579h2.575v-2.579H316.287z M316.287,519.473v2.577h2.575v-2.577
	H316.287z M336.643,541.633v2.578h2.576v-2.578H336.643z M336.643,606.566v2.576h2.576v-2.576H336.643z M336.643,634.91l1.286,1.287
	l1.29-1.287l-1.29-1.29L336.643,634.91z M317.316,648.564l1.289,1.289l1.289-1.289l-1.289-1.287L317.316,648.564z M278.409,647.277
	v2.576h2.576v-2.576H278.409z M239.502,648.564l1.287,1.289l1.289-1.289l-1.289-1.287L239.502,648.564z M219.919,634.91l1.288,1.287
	l1.288-1.287l-1.288-1.29L219.919,634.91z M219.919,606.566v2.576h2.576v-2.576H219.919z M219.919,538.282v2.577h2.576v-2.577
	H219.919z M219.919,527.72l1.288,1.288l1.288-1.288l-1.288-1.289L219.919,527.72z M211.932,520.504l1.288,1.289l1.287-1.289
	l-1.287-1.29L211.932,520.504z M195.956,519.214v2.579h2.576v-2.579H195.956z M179.98,520.504l1.287,1.289l1.289-1.289l-1.289-1.29
	L179.98,520.504z M171.992,527.72l1.289,1.288l1.288-1.288l-1.288-1.289L171.992,527.72z M171.992,538.282v2.577h2.577v-2.577
	H171.992z M171.992,588.014v2.576h2.577v-2.576H171.992z M190.029,589.303l1.288,1.287l1.288-1.287l-1.288-1.289L190.029,589.303z
	 M201.624,597.805l1.288,1.288l1.288-1.288l-1.288-1.289L201.624,597.805z M201.624,616.872v2.577h2.576v-2.577H201.624z
	 M201.624,636.456l1.288,1.287l1.288-1.287l-1.288-1.29L201.624,636.456z M188.483,648.564l1.287,1.289l1.29-1.289l-1.29-1.287
	L188.483,648.564z M169.157,647.277v2.576h2.577v-2.576H169.157z M157.562,647.277v2.576h2.577v-2.576H157.562z M143.391,648.564
	l1.289,1.289l1.288-1.289l-1.288-1.287L143.391,648.564z M136.691,643.412l1.288,1.288l1.289-1.288l-1.289-1.289L136.691,643.412z
	 M136.691,630.528v2.578h2.577v-2.578H136.691z M136.691,536.994v2.576h2.577v-2.576H136.691z M136.691,511.229l1.288,1.287
	l1.289-1.287l-1.289-1.29L136.691,511.229z M156.531,497.569l1.289,1.289l1.288-1.289l-1.288-1.288L156.531,497.569z
	 M195.956,496.281v2.577h2.576v-2.577H195.956z M235.121,497.569l1.288,1.289l1.288-1.289l-1.288-1.288L235.121,497.569z
	 M254.962,511.229l1.287,1.287l1.288-1.287l-1.288-1.29L254.962,511.229z M254.962,536.994v2.576h2.575v-2.576H254.962z
	 M254.962,603.988v2.578h2.575v-2.578H254.962z M254.962,616.872l1.287,1.289l1.288-1.289l-1.288-1.287L254.962,616.872z
	 M262.69,625.375l1.29,1.288l1.288-1.288l-1.288-1.289L262.69,625.375z M278.409,624.086v2.577h2.576v-2.577H278.409z
	 M294.125,625.375l1.29,1.288l1.288-1.288l-1.288-1.289L294.125,625.375z M301.601,616.872l1.287,1.289l1.287-1.289l-1.287-1.287
	L301.601,616.872z M301.601,603.988v2.578h2.574v-2.578H301.601z M301.601,541.633v2.578h2.574v-2.578H301.601z M288.2,526.174
	l1.288,1.287l1.289-1.287l-1.289-1.289L288.2,526.174z M287.169,524.885l1.289,1.289l1.288-1.289l-1.288-1.288L287.169,524.885z
	 M287.169,520.763v2.576h2.577v-2.576H287.169z M287.169,518.958l1.289,1.287l1.288-1.287l-1.288-1.29L287.169,518.958z
	 M291.292,513.546l1.289,1.29l1.288-1.29l-1.288-1.286L291.292,513.546z M303.661,496.281v2.577h2.576v-2.577H303.661z
	 M340.765,496.281v2.577h2.577v-2.577H340.765z M182.557,618.161c0,6.957-3.865,11.337-9.275,11.337v-21.643
	C178.948,608.111,182.557,611.719,182.557,618.161z M342.052,520.504v-22.935h-37.103c-12.368,15.977-16.491,21.389-16.491,24.48
	c0,2.835,1.03,4.124,14.43,20.87v62.357c0,11.595-7.473,20.098-23.19,20.098c-15.717,0-23.448-8.503-23.448-20.098v-66.995
	c0-27.054-19.84-40.713-59.005-40.713c-39.424,0-59.265,13.659-59.265,40.713v93.536c0,11.594,6.7,16.746,20.872,16.746h11.595
	c19.324,0,32.466-12.108,32.466-30.403c0-20.356-11.595-28.858-29.631-28.858V539.57c0-11.851,7.986-19.066,23.963-19.066
	c15.976,0,23.963,7.216,23.963,19.066v68.285c0,27.055,19.582,40.709,58.49,40.709s58.231-13.654,58.231-40.709V542.92
	l-20.354-22.157v-0.259H342.052z"/>
<g>
	<g>
		
			<line fill="none" stroke="#000000" stroke-width="2" stroke-miterlimit="10" x1="90.201" y1="164.213" x2="110.119" y2="193.237"/>
		<g>
			<path d="M113.534,198.213c-2.476-1.745-5.952-3.633-8.758-4.356l4.895-1.272l2.947-4.109
				C112.284,191.354,112.795,195.276,113.534,198.213z"/>
		</g>
	</g>
</g>
<g>
	<g>
		<line fill="none" stroke="#000000" stroke-width="2" stroke-miterlimit="10" x1="360.419" y1="164.213" x2="340.5" y2="193.237"/>
		<g>
			<path d="M337.085,198.213c0.738-2.938,1.25-6.86,0.915-9.738l2.948,4.109l4.894,1.272
				C343.036,194.58,339.56,196.468,337.085,198.213z"/>
		</g>
	</g>
</g>
<g>
	<g>
		
			<line fill="none" stroke="#000000" stroke-width="2" stroke-miterlimit="10" x1="240.017" y1="454.213" x2="240.017" y2="485.178"/>
		<g>
			<path d="M240.017,491.213c-1.054-2.84-2.852-6.363-4.756-8.547l4.756,1.72l4.755-1.72
				C242.867,484.85,241.069,488.373,240.017,491.213z"/>
		</g>
	</g>
</g>
</svg>
